# xmcd
#
# Track frame offsets:
#	150
#	13690
#	25397
#	37962
#	50825
#	64105
#	77435
#	90592
#	103477
#	116507
#	127927
#	139505
#	151412
#	164652
#	174995
#	190140
#	205847
#	219025
#	231792
#	243507
#	256975
#	269090
#	295112
#
# Disc length: 4082 seconds
#
# Revision: 0
# Processed by: cddbd v1.5.2PL0 Copyright (c) Steve Scherf et al.
# Submitted via: EasyCDDAExtractor 16.0.1.1
#
DISCID=420ff017
DTITLE=Elton Britt - The Rca Years [1939-68]
DYEAR=1997
DGENRE=Country
TTITLE0=Patent Leather Boots
TTITLE1=They're Burning Down The House (I Was Brung Up In)
TTITLE2=There's A Star Spangled Banner Waving Somewhere
TTITLE3=Someday (You'll Want Me To Want You)
TTITLE4=I'm A Convict With Old Glory In My Heart
TTITLE5=Blueberry Lane
TTITLE6=Blue Texas Moonlight
TTITLE7=Wave To Me, My Lady
TTITLE8=Detour
TTITLE9=Rogue River Valley
TTITLE10=Gotta Get Together With My Gal
TTITLE11=Chime Bells
TTITLE12=Maybe I'll Cry Over You
TTITLE13=Candy Kisses
TTITLE14=In A Swiss Chalet
TTITLE15=Beyond The Sunset
TTITLE16=Quicksilver
TTITLE17=The Yodel Blues
TTITLE18=Mockin Bird Hill
TTITLE19=Cannonball Yodel
TTITLE20=The Skater's Yodel
TTITLE21=The Jommie Rodgers Blues
TTITLE22=The Bitter Taste
EXTD=
EXTT0=
EXTT1=
EXTT2=
EXTT3=
EXTT4=
EXTT5=
EXTT6=
EXTT7=
EXTT8=
EXTT9=
EXTT10=
EXTT11=
EXTT12=
EXTT13=
EXTT14=
EXTT15=
EXTT16=
EXTT17=
EXTT18=
EXTT19=
EXTT20=
EXTT21=
EXTT22=
PLAYORDER=
